<?xml version="1.0" standalone="no"?>
<!DOCTYPE svg PUBLIC "-//W3C//DTD SVG 20010904//EN"
 "http://www.w3.org/TR/2001/REC-SVG-20010904/DTD/svg10.dtd">
<svg version="1.0" xmlns="http://www.w3.org/2000/svg"
 width="1920.000000pt" height="1080.000000pt" viewBox="0 0 1920.000000 1080.000000"
 preserveAspectRatio="xMidYMid meet">
<metadata>
Created by potrace 1.15, written by Peter Selinger 2001-2017
</metadata>
<g transform="translate(0.000000,1080.000000) scale(0.100000,-0.100000)"
fill="#000000" stroke="none">
<path d="M0 5400 l0 -5400 9600 0 9600 0 0 5400 0 5400 -685 0 -686 0 -197
-104 c-341 -179 -529 -276 -536 -276 -30 0 38 40 322 188 180 95 334 176 342
182 10 6 -1241 10 -3682 10 -3512 0 -3697 -1 -3701 -17 -4 -17 -5 -17 -6 0 -1
16 -154 17 -3063 17 l-3063 -1 35 -30 c19 -17 76 -64 127 -104 50 -41 95 -80
99 -87 6 -11 -29 14 -46 32 -3 3 -27 24 -55 45 -27 22 -78 64 -113 93 l-62 52
-2115 0 -2115 0 0 -5400z m1102 1745 c101 -8 269 -21 373 -29 105 -9 282 -23
395 -32 113 -9 213 -20 224 -26 18 -10 18 -11 1 -20 -19 -11 -58 -9 -400 16
-110 8 -297 22 -415 31 -118 9 -259 19 -312 23 -94 7 -127 19 -114 41 9 14 28
14 248 -4z m16283 -1240 c110 -8 297 -21 415 -30 118 -9 261 -20 318 -24 72
-5 106 -12 112 -22 23 -36 20 -36 -575 11 -137 11 -334 27 -437 35 -103 8
-195 15 -205 15 -10 0 -25 5 -33 10 -13 9 -13 11 0 21 16 11 74 9 405 -16z
m507 -2035 c363 -114 629 -202 625 -207 -3 -2 -25 1 -48 7 -44 11 -442 133
-489 150 -14 5 -91 29 -172 55 -82 25 -148 49 -148 52 0 11 71 -6 232 -57z
m-15907 -1339 c-3 -6 -119 -69 -258 -142 -138 -73 -333 -175 -432 -227 -222
-117 -534 -277 -557 -285 -33 -12 -18 1 40 36 56 34 116 66 387 207 77 40 185
96 240 125 55 29 181 94 280 146 99 51 203 105 230 121 50 28 81 36 70 19z
m1889 -928 c-9 -16 -48 -55 -87 -88 -38 -33 -111 -96 -162 -140 -50 -44 -118
-102 -151 -130 -32 -27 -77 -66 -99 -86 -22 -20 -112 -98 -200 -174 -88 -75
-171 -147 -185 -159 -32 -28 -58 -38 -65 -26 -12 19 18 50 172 181 87 73 268
228 403 344 310 266 357 305 376 305 13 0 13 -4 -2 -27z m10568 -807 c43 -42
185 -211 223 -266 33 -47 26 -64 -11 -29 -62 57 -264 296 -264 312 0 25 13 21
52 -17z"/>
</g>
</svg>
