<?xml version="1.0" standalone="no"?>
<!DOCTYPE svg PUBLIC "-//W3C//DTD SVG 20010904//EN"
 "http://www.w3.org/TR/2001/REC-SVG-20010904/DTD/svg10.dtd">
<svg version="1.0" xmlns="http://www.w3.org/2000/svg"
 width="1392.000000pt" height="646.000000pt" viewBox="0 0 1392.000000 646.000000"
 preserveAspectRatio="xMidYMid meet">
<metadata>
Created by potrace 1.15, written by Peter Selinger 2001-2017
</metadata>
<g transform="translate(0.000000,646.000000) scale(0.100000,-0.100000)"
fill="#000000" stroke="none">
<path d="M13272 6220 c-82 -45 -172 -123 -347 -302 -392 -399 -947 -1120
-1665 -2163 -719 -1045 -857 -1289 -941 -1669 -22 -104 -33 -134 -51 -148 -85
-65 -320 -233 -431 -308 -354 -238 -618 -367 -846 -415 -93 -19 -250 -19 -326
0 -254 66 -415 273 -415 535 1 129 52 237 175 363 90 93 177 162 450 357 352
250 360 255 395 220 20 -20 21 -28 15 -109 -10 -126 16 -171 100 -171 110 0
318 196 498 470 95 146 192 345 213 438 30 133 -3 256 -92 348 -166 171 -428
132 -836 -124 -390 -245 -918 -725 -1186 -1080 -92 -122 -156 -251 -186 -378
-14 -54 -27 -110 -31 -124 -6 -27 -46 -61 -245 -212 -253 -192 -435 -296 -579
-333 -75 -19 -220 -22 -282 -5 -164 44 -268 165 -277 321 -8 132 31 241 130
361 28 34 167 180 308 323 186 189 272 284 316 350 187 279 294 508 294 630 0
62 -37 125 -90 155 -37 20 -62 25 -141 28 -220 9 -409 -88 -659 -338 -220
-219 -467 -565 -616 -861 -85 -171 -124 -358 -124 -601 0 -258 48 -507 138
-716 58 -135 99 -199 172 -272 133 -133 314 -179 506 -130 146 37 342 149 533
302 108 87 398 381 518 525 l102 122 6 -47 c11 -85 47 -245 71 -317 81 -237
181 -403 328 -542 148 -141 276 -189 471 -180 139 7 226 31 380 107 274 134
542 346 1060 838 l170 162 11 -183 c20 -316 60 -468 151 -568 76 -84 179 -104
264 -51 56 36 103 89 389 447 320 401 717 863 884 1031 147 147 280 253 442
354 52 33 97 60 99 60 3 0 -57 -93 -133 -208 -272 -411 -462 -755 -557 -1009
-13 -34 -39 -120 -56 -190 -28 -112 -33 -145 -33 -263 -1 -108 3 -147 18 -194
28 -84 70 -135 139 -170 261 -130 617 83 1359 813 l248 243 0 129 c0 71 -2
129 -4 129 -2 0 -78 -56 -168 -124 -296 -222 -499 -347 -636 -392 -76 -25 -89
-27 -138 -16 -96 20 -135 68 -142 179 -8 114 50 272 175 478 105 171 229 335
644 846 66 82 80 120 68 183 -21 112 -143 281 -238 331 -45 23 -110 29 -161
15 -103 -27 -291 -140 -475 -283 -333 -261 -886 -803 -1430 -1402 -65 -71
-122 -131 -126 -133 -5 -2 -9 108 -9 245 l0 248 192 215 c387 435 988 1178
1390 1720 314 423 889 1254 1080 1560 114 184 188 346 188 415 0 63 -87 121
-223 149 -106 22 -134 20 -195 -14z"/>
<path d="M3885 5940 c-691 -32 -1443 -167 -2009 -360 -229 -78 -391 -152 -509
-232 -222 -151 -437 -459 -552 -793 -22 -64 -26 -92 -23 -150 4 -85 30 -131
93 -167 37 -21 51 -23 185 -22 222 2 1111 39 1217 50 92 10 121 60 48 84 -18
6 -131 15 -251 20 -273 11 -324 24 -324 80 0 40 32 67 107 90 63 19 776 162
999 200 172 29 607 91 611 87 1 -2 -113 -158 -255 -348 -299 -400 -994 -1335
-1037 -1396 l-30 -41 -95 -12 c-466 -57 -543 -74 -647 -146 -66 -45 -108 -95
-217 -257 -141 -210 -187 -319 -166 -395 13 -47 40 -65 212 -138 l137 -57 -30
-41 c-399 -532 -829 -1226 -908 -1463 -44 -131 9 -209 154 -228 38 -5 63 -2
102 13 122 46 300 195 356 297 16 27 41 85 57 130 58 164 128 291 307 565 133
202 365 530 375 530 4 0 409 -196 900 -436 491 -240 954 -466 1028 -502 182
-88 474 -242 895 -471 616 -337 671 -360 748 -312 76 47 97 146 104 482 9 457
-21 553 -215 677 -466 297 -1900 925 -2964 1297 -59 21 -105 41 -102 46 3 5
31 9 62 9 88 0 580 38 852 65 923 94 1730 251 2290 446 153 53 394 174 503
252 238 172 418 384 542 642 107 224 165 469 165 703 0 178 -35 315 -115 456
-175 308 -479 490 -1020 610 -519 115 -1050 161 -1580 136z m1165 -1031 c265
-24 539 -76 700 -134 220 -80 330 -183 330 -311 0 -57 -39 -160 -83 -221 -247
-333 -937 -604 -2308 -907 -345 -77 -950 -198 -956 -193 -2 2 94 132 214 288
519 680 631 838 718 1014 69 140 86 205 87 327 l0 97 31 5 c60 10 382 38 527
46 172 10 578 4 740 -11z"/>
<path d="M7655 4772 c-153 -73 -333 -310 -381 -502 -32 -126 0 -231 94 -307
192 -157 451 -47 641 272 75 125 102 270 72 382 -17 61 -68 123 -130 155 -47
25 -64 28 -145 28 -79 0 -99 -4 -151 -28z"/>
</g>
</svg>
